<svg width="24" height="24" viewBox="0 0 24 24" fill="none" xmlns="http://www.w3.org/2000/svg">
<rect width="24" height="24" rx="8" fill="#030404"/>
<path d="M7.09378 5.37573C7.4165 5.72532 7.84719 6.15041 8.38155 6.64983C8.91776 7.15157 9.50333 7.66957 10.1383 8.20616C10.7732 8.74448 11.3896 9.25726 11.9882 9.7439C12.388 10.0703 12.7607 10.3664 13.1056 10.6312C13.4283 10.8792 13.8134 11 14.2194 11H16.8085C16.8899 11 16.9609 10.9495 16.9837 10.8763C16.9856 10.8711 16.9868 10.8659 16.988 10.8606C17.0288 10.7038 16.9547 10.5691 16.9257 10.5238C16.9214 10.5174 16.9171 10.511 16.9115 10.5046C16.3716 9.86411 15.9175 9.30081 15.554 8.84495C15.045 8.20616 14.5396 7.5453 14.0417 6.85656C14.0367 6.84959 13.7677 6.5122 13.7628 6.50523C12.9353 5.36295 11.8944 5 10.4875 5H7.18079C7.10366 5 7.03085 5.04413 7.00925 5.11382C7.00925 5.1144 7.00925 5.11498 7.00925 5.11556C6.9821 5.20325 7.01604 5.30488 7.09378 5.37514V5.37573Z" fill="white"/>
<path d="M16.9053 13.3747C16.5825 13.7243 16.1522 14.1489 15.6175 14.6491C15.081 15.1511 14.4959 15.6689 13.8611 16.2056C13.2262 16.7441 12.6096 17.2565 12.0112 17.7438C11.63 18.0551 11.2732 18.339 10.9424 18.5943C10.6013 18.8574 10.1838 19 9.75405 19H7.19893C7.11336 19 7.03385 18.9452 7.012 18.8623C7.012 18.8617 7.012 18.8611 7.012 18.8605C6.96952 18.6978 7.05145 18.5589 7.07755 18.5193C7.08058 18.5151 7.08362 18.5108 7.08665 18.5072C7.62741 17.8657 8.082 17.3022 8.44615 16.8453C8.95535 16.2062 9.4603 15.5452 9.95858 14.8568C9.96343 14.8501 10.2323 14.512 10.2372 14.5053C11.0644 13.3631 12.1052 13 13.5121 13H16.8519C16.892 13 16.9321 13.0164 16.9563 13.0487C16.9697 13.0664 16.983 13.0889 16.9909 13.1157C17.0176 13.2035 16.9842 13.3052 16.9059 13.3759L16.9053 13.3747Z" fill="white"/>
</svg>
